<svg width="783" height="285" viewBox="0 0 783 285" fill="none" xmlns="http://www.w3.org/2000/svg">
<path d="M42.7695 152.648V278.625H9.85938V132.336H40.5234L42.7695 152.648ZM107.613 183.898V185.949C107.613 193.632 106.734 200.76 104.977 207.336C103.219 213.911 100.615 219.641 97.1641 224.523C93.7135 229.406 89.4167 233.215 84.2734 235.949C79.1953 238.618 73.3034 239.953 66.5977 239.953C60.2826 239.953 54.8464 238.553 50.2891 235.754C45.7318 232.954 41.9232 229.081 38.8633 224.133C35.8034 219.185 33.3294 213.521 31.4414 207.141C29.5534 200.76 28.056 194.022 26.9492 186.926V184.289C28.056 176.672 29.5534 169.608 31.4414 163.098C33.3294 156.522 35.8034 150.793 38.8633 145.91C41.9232 141.027 45.6992 137.219 50.1914 134.484C54.7487 131.75 60.1849 130.383 66.5 130.383C73.2057 130.383 79.0977 131.652 84.1758 134.191C89.319 136.73 93.6159 140.376 97.0664 145.129C100.582 149.816 103.219 155.448 104.977 162.023C106.734 168.599 107.613 175.891 107.613 183.898ZM74.7031 185.949V183.898C74.7031 179.797 74.4102 176.053 73.8242 172.668C73.2383 169.217 72.2943 166.223 70.9922 163.684C69.7552 161.145 68.0951 159.191 66.0117 157.824C63.9284 156.457 61.3568 155.773 58.2969 155.773C54.7812 155.773 51.819 156.327 49.4102 157.434C47.0664 158.475 45.1784 160.103 43.7461 162.316C42.3789 164.465 41.4023 167.167 40.8164 170.422C40.2956 173.612 40.0677 177.355 40.1328 181.652V189.66C40.0026 194.608 40.4909 198.97 41.5977 202.746C42.7044 206.457 44.625 209.354 47.3594 211.438C50.0938 213.521 53.8047 214.562 58.4922 214.562C61.6172 214.562 64.2214 213.846 66.3047 212.414C68.388 210.917 70.0482 208.866 71.2852 206.262C72.5221 203.592 73.401 200.533 73.9219 197.082C74.4427 193.632 74.7031 189.921 74.7031 185.949ZM118.16 186.242V184.191C118.16 176.444 119.267 169.315 121.48 162.805C123.694 156.229 126.949 150.533 131.246 145.715C135.543 140.897 140.849 137.154 147.164 134.484C153.479 131.75 160.771 130.383 169.039 130.383C177.372 130.383 184.697 131.75 191.012 134.484C197.392 137.154 202.73 140.897 207.027 145.715C211.324 150.533 214.579 156.229 216.793 162.805C219.007 169.315 220.113 176.444 220.113 184.191V186.242C220.113 193.924 219.007 201.053 216.793 207.629C214.579 214.139 211.324 219.836 207.027 224.719C202.73 229.536 197.424 233.28 191.109 235.949C184.794 238.618 177.503 239.953 169.234 239.953C160.966 239.953 153.642 238.618 147.262 235.949C140.882 233.28 135.543 229.536 131.246 224.719C126.949 219.836 123.694 214.139 121.48 207.629C119.267 201.053 118.16 193.924 118.16 186.242ZM151.07 184.191V186.242C151.07 190.214 151.363 193.924 151.949 197.375C152.535 200.826 153.512 203.853 154.879 206.457C156.246 208.996 158.102 210.982 160.445 212.414C162.789 213.846 165.719 214.562 169.234 214.562C172.685 214.562 175.549 213.846 177.828 212.414C180.172 210.982 182.027 208.996 183.395 206.457C184.762 203.853 185.738 200.826 186.324 197.375C186.91 193.924 187.203 190.214 187.203 186.242V184.191C187.203 180.35 186.91 176.737 186.324 173.352C185.738 169.901 184.762 166.874 183.395 164.27C182.027 161.6 180.172 159.517 177.828 158.02C175.484 156.522 172.555 155.773 169.039 155.773C165.589 155.773 162.691 156.522 160.348 158.02C158.069 159.517 156.246 161.6 154.879 164.27C153.512 166.874 152.535 169.901 151.949 173.352C151.363 176.737 151.07 180.35 151.07 184.191ZM267.965 158.508V238H235.055V132.336H265.816L267.965 158.508ZM299.215 131.555L298.629 162.121C297.327 161.991 295.569 161.828 293.355 161.633C291.142 161.438 289.286 161.34 287.789 161.34C283.948 161.34 280.628 161.796 277.828 162.707C275.094 163.553 272.815 164.855 270.992 166.613C269.234 168.306 267.932 170.454 267.086 173.059C266.305 175.663 265.947 178.69 266.012 182.141L260.055 178.234C260.055 171.138 260.738 164.693 262.105 158.898C263.538 153.039 265.556 147.993 268.16 143.762C270.764 139.465 273.922 136.177 277.633 133.898C281.344 131.555 285.51 130.383 290.133 130.383C291.76 130.383 293.355 130.48 294.918 130.676C296.546 130.871 297.978 131.164 299.215 131.555ZM371.09 132.336V155.188H307.418V132.336H371.09ZM320.797 106.066H353.707V203.527C353.707 206.327 354.033 208.508 354.684 210.07C355.335 211.568 356.441 212.642 358.004 213.293C359.632 213.879 361.78 214.172 364.449 214.172C366.337 214.172 367.9 214.139 369.137 214.074C370.374 213.944 371.546 213.781 372.652 213.586V237.121C369.853 238.033 366.923 238.716 363.863 239.172C360.803 239.693 357.548 239.953 354.098 239.953C347.066 239.953 341.044 238.846 336.031 236.633C331.083 234.419 327.307 230.936 324.703 226.184C322.099 221.431 320.797 215.246 320.797 207.629V106.066ZM424.508 238H391.402V123.742C391.402 115.539 393.062 108.638 396.383 103.039C399.703 97.4401 404.391 93.2083 410.445 90.3438C416.5 87.4141 423.661 85.9492 431.93 85.9492C434.794 85.9492 437.496 86.1445 440.035 86.5352C442.574 86.9258 445.048 87.4141 447.457 88L447.555 112.219C446.383 111.893 445.178 111.665 443.941 111.535C442.704 111.405 441.174 111.34 439.352 111.34C436.161 111.34 433.46 111.828 431.246 112.805C429.033 113.716 427.34 115.116 426.168 117.004C425.061 118.827 424.508 121.073 424.508 123.742V238ZM445.016 132.336V155.188H376.168V132.336H445.016ZM452.73 186.242V184.191C452.73 176.444 453.837 169.315 456.051 162.805C458.264 156.229 461.52 150.533 465.816 145.715C470.113 140.897 475.419 137.154 481.734 134.484C488.049 131.75 495.341 130.383 503.609 130.383C511.943 130.383 519.267 131.75 525.582 134.484C531.962 137.154 537.301 140.897 541.598 145.715C545.895 150.533 549.15 156.229 551.363 162.805C553.577 169.315 554.684 176.444 554.684 184.191V186.242C554.684 193.924 553.577 201.053 551.363 207.629C549.15 214.139 545.895 219.836 541.598 224.719C537.301 229.536 531.995 233.28 525.68 235.949C519.365 238.618 512.073 239.953 503.805 239.953C495.536 239.953 488.212 238.618 481.832 235.949C475.452 233.28 470.113 229.536 465.816 224.719C461.52 219.836 458.264 214.139 456.051 207.629C453.837 201.053 452.73 193.924 452.73 186.242ZM485.641 184.191V186.242C485.641 190.214 485.934 193.924 486.52 197.375C487.105 200.826 488.082 203.853 489.449 206.457C490.816 208.996 492.672 210.982 495.016 212.414C497.359 213.846 500.289 214.562 503.805 214.562C507.255 214.562 510.12 213.846 512.398 212.414C514.742 210.982 516.598 208.996 517.965 206.457C519.332 203.853 520.309 200.826 520.895 197.375C521.48 193.924 521.773 190.214 521.773 186.242V184.191C521.773 180.35 521.48 176.737 520.895 173.352C520.309 169.901 519.332 166.874 517.965 164.27C516.598 161.6 514.742 159.517 512.398 158.02C510.055 156.522 507.125 155.773 503.609 155.773C500.159 155.773 497.262 156.522 494.918 158.02C492.639 159.517 490.816 161.6 489.449 164.27C488.082 166.874 487.105 169.901 486.52 173.352C485.934 176.737 485.641 180.35 485.641 184.191ZM604.098 88V238H571.09V88H604.098ZM659.176 132.336V238H626.168V132.336H659.176ZM624.215 105.09C624.215 100.402 625.908 96.5612 629.293 93.5664C632.678 90.5716 637.073 89.0742 642.477 89.0742C647.88 89.0742 652.275 90.5716 655.66 93.5664C659.046 96.5612 660.738 100.402 660.738 105.09C660.738 109.777 659.046 113.618 655.66 116.613C652.275 119.608 647.88 121.105 642.477 121.105C637.073 121.105 632.678 119.608 629.293 116.613C625.908 113.618 624.215 109.777 624.215 105.09ZM675.387 186.242V184.191C675.387 176.444 676.493 169.315 678.707 162.805C680.921 156.229 684.176 150.533 688.473 145.715C692.77 140.897 698.076 137.154 704.391 134.484C710.706 131.75 717.997 130.383 726.266 130.383C734.599 130.383 741.923 131.75 748.238 134.484C754.618 137.154 759.957 140.897 764.254 145.715C768.551 150.533 771.806 156.229 774.02 162.805C776.233 169.315 777.34 176.444 777.34 184.191V186.242C777.34 193.924 776.233 201.053 774.02 207.629C771.806 214.139 768.551 219.836 764.254 224.719C759.957 229.536 754.651 233.28 748.336 235.949C742.021 238.618 734.729 239.953 726.461 239.953C718.193 239.953 710.868 238.618 704.488 235.949C698.108 233.28 692.77 229.536 688.473 224.719C684.176 219.836 680.921 214.139 678.707 207.629C676.493 201.053 675.387 193.924 675.387 186.242ZM708.297 184.191V186.242C708.297 190.214 708.59 193.924 709.176 197.375C709.762 200.826 710.738 203.853 712.105 206.457C713.473 208.996 715.328 210.982 717.672 212.414C720.016 213.846 722.945 214.562 726.461 214.562C729.911 214.562 732.776 213.846 735.055 212.414C737.398 210.982 739.254 208.996 740.621 206.457C741.988 203.853 742.965 200.826 743.551 197.375C744.137 193.924 744.43 190.214 744.43 186.242V184.191C744.43 180.35 744.137 176.737 743.551 173.352C742.965 169.901 741.988 166.874 740.621 164.27C739.254 161.6 737.398 159.517 735.055 158.02C732.711 156.522 729.781 155.773 726.266 155.773C722.815 155.773 719.918 156.522 717.574 158.02C715.296 159.517 713.473 161.6 712.105 164.27C710.738 166.874 709.762 169.901 709.176 173.352C708.59 176.737 708.297 180.35 708.297 184.191Z" fill="black"/>
<path d="M347.297 59.5469C347.297 58.2969 347.016 57.1406 346.453 56.0781C345.922 54.9844 344.812 54 343.125 53.125C341.469 52.2188 338.969 51.4375 335.625 50.7812C332.812 50.1875 330.266 49.4844 327.984 48.6719C325.734 47.8594 323.812 46.875 322.219 45.7188C320.656 44.5625 319.453 43.2031 318.609 41.6406C317.766 40.0781 317.344 38.25 317.344 36.1562C317.344 34.1562 317.781 32.2656 318.656 30.4844C319.562 28.7031 320.828 27.125 322.453 25.75C324.109 24.375 326.094 23.2969 328.406 22.5156C330.719 21.7344 333.297 21.3438 336.141 21.3438C340.203 21.3438 343.672 22.0625 346.547 23.5C349.422 24.9375 351.625 26.8594 353.156 29.2656C354.688 31.6406 355.453 34.2812 355.453 37.1875H346.781C346.781 35.7812 346.359 34.4219 345.516 33.1094C344.703 31.7656 343.5 30.6562 341.906 29.7812C340.344 28.9062 338.422 28.4688 336.141 28.4688C333.734 28.4688 331.781 28.8438 330.281 29.5938C328.812 30.3125 327.734 31.2344 327.047 32.3594C326.391 33.4844 326.062 34.6719 326.062 35.9219C326.062 36.8594 326.219 37.7031 326.531 38.4531C326.875 39.1719 327.469 39.8438 328.312 40.4688C329.156 41.0625 330.344 41.625 331.875 42.1562C333.406 42.6875 335.359 43.2188 337.734 43.75C341.891 44.6875 345.312 45.8125 348 47.125C350.688 48.4375 352.688 50.0469 354 51.9531C355.312 53.8594 355.969 56.1719 355.969 58.8906C355.969 61.1094 355.5 63.1406 354.562 64.9844C353.656 66.8281 352.328 68.4219 350.578 69.7656C348.859 71.0781 346.797 72.1094 344.391 72.8594C342.016 73.5781 339.344 73.9375 336.375 73.9375C331.906 73.9375 328.125 73.1406 325.031 71.5469C321.938 69.9531 319.594 67.8906 318 65.3594C316.406 62.8281 315.609 60.1562 315.609 57.3438H324.328C324.453 59.7188 325.141 61.6094 326.391 63.0156C327.641 64.3906 329.172 65.375 330.984 65.9688C332.797 66.5312 334.594 66.8125 336.375 66.8125C338.75 66.8125 340.734 66.5 342.328 65.875C343.953 65.25 345.188 64.3906 346.031 63.2969C346.875 62.2031 347.297 60.9531 347.297 59.5469ZM365.062 48.2031V47.125C365.062 43.4688 365.594 40.0781 366.656 36.9531C367.719 33.7969 369.25 31.0625 371.25 28.75C373.25 26.4062 375.672 24.5937 378.516 23.3125C381.359 22 384.547 21.3438 388.078 21.3438C391.641 21.3438 394.844 22 397.688 23.3125C400.562 24.5937 403 26.4062 405 28.75C407.031 31.0625 408.578 33.7969 409.641 36.9531C410.703 40.0781 411.234 43.4688 411.234 47.125V48.2031C411.234 51.8594 410.703 55.25 409.641 58.375C408.578 61.5 407.031 64.2344 405 66.5781C403 68.8906 400.578 70.7031 397.734 72.0156C394.922 73.2969 391.734 73.9375 388.172 73.9375C384.609 73.9375 381.406 73.2969 378.562 72.0156C375.719 70.7031 373.281 68.8906 371.25 66.5781C369.25 64.2344 367.719 61.5 366.656 58.375C365.594 55.25 365.062 51.8594 365.062 48.2031ZM373.734 47.125V48.2031C373.734 50.7344 374.031 53.125 374.625 55.375C375.219 57.5938 376.109 59.5625 377.297 61.2812C378.516 63 380.031 64.3594 381.844 65.3594C383.656 66.3281 385.766 66.8125 388.172 66.8125C390.547 66.8125 392.625 66.3281 394.406 65.3594C396.219 64.3594 397.719 63 398.906 61.2812C400.094 59.5625 400.984 57.5938 401.578 55.375C402.203 53.125 402.516 50.7344 402.516 48.2031V47.125C402.516 44.625 402.203 42.2656 401.578 40.0469C400.984 37.7969 400.078 35.8125 398.859 34.0938C397.672 32.3438 396.172 30.9688 394.359 29.9688C392.578 28.9688 390.484 28.4688 388.078 28.4688C385.703 28.4688 383.609 28.9688 381.797 29.9688C380.016 30.9688 378.516 32.3438 377.297 34.0938C376.109 35.8125 375.219 37.7969 374.625 40.0469C374.031 42.2656 373.734 44.625 373.734 47.125ZM433.688 73H425.016V17.875C425.016 14.0312 425.766 10.7813 427.266 8.125C428.766 5.46875 430.906 3.45312 433.688 2.07812C436.469 0.703125 439.766 0.015625 443.578 0.015625C445.828 0.015625 448.031 0.296875 450.188 0.859375C452.344 1.39062 454.562 2.0625 456.844 2.875L455.391 10.1875C453.953 9.625 452.281 9.09375 450.375 8.59375C448.5 8.0625 446.438 7.79688 444.188 7.79688C440.469 7.79688 437.781 8.64062 436.125 10.3281C434.5 11.9844 433.688 14.5 433.688 17.875V73ZM444.047 22.2812V28.9375H417V22.2812H444.047ZM461.109 22.2812V73H452.438V22.2812H461.109ZM505.266 64.3281V38.2188C505.266 36.2188 504.859 34.4844 504.047 33.0156C503.266 31.5156 502.078 30.3594 500.484 29.5469C498.891 28.7344 496.922 28.3281 494.578 28.3281C492.391 28.3281 490.469 28.7031 488.812 29.4531C487.188 30.2031 485.906 31.1875 484.969 32.4062C484.062 33.625 483.609 34.9375 483.609 36.3438H474.938C474.938 34.5312 475.406 32.7344 476.344 30.9531C477.281 29.1719 478.625 27.5625 480.375 26.125C482.156 24.6563 484.281 23.5 486.75 22.6562C489.25 21.7812 492.031 21.3438 495.094 21.3438C498.781 21.3438 502.031 21.9687 504.844 23.2188C507.688 24.4688 509.906 26.3594 511.5 28.8906C513.125 31.3906 513.938 34.5312 513.938 38.3125V61.9375C513.938 63.625 514.078 65.4219 514.359 67.3281C514.672 69.2344 515.125 70.875 515.719 72.25V73H506.672C506.234 72 505.891 70.6719 505.641 69.0156C505.391 67.3281 505.266 65.7656 505.266 64.3281ZM506.766 42.25L506.859 48.3438H498.094C495.625 48.3438 493.422 48.5469 491.484 48.9531C489.547 49.3281 487.922 49.9062 486.609 50.6875C485.297 51.4688 484.297 52.4531 483.609 53.6406C482.922 54.7969 482.578 56.1562 482.578 57.7188C482.578 59.3125 482.938 60.7656 483.656 62.0781C484.375 63.3906 485.453 64.4375 486.891 65.2188C488.359 65.9688 490.156 66.3438 492.281 66.3438C494.938 66.3438 497.281 65.7812 499.312 64.6562C501.344 63.5312 502.953 62.1562 504.141 60.5312C505.359 58.9062 506.016 57.3281 506.109 55.7969L509.812 59.9688C509.594 61.2812 509 62.7344 508.031 64.3281C507.062 65.9219 505.766 67.4531 504.141 68.9219C502.547 70.3594 500.641 71.5625 498.422 72.5312C496.234 73.4688 493.766 73.9375 491.016 73.9375C487.578 73.9375 484.562 73.2656 481.969 71.9219C479.406 70.5781 477.406 68.7812 475.969 66.5312C474.562 64.25 473.859 61.7031 473.859 58.8906C473.859 56.1719 474.391 53.7812 475.453 51.7188C476.516 49.625 478.047 47.8906 480.047 46.5156C482.047 45.1094 484.453 44.0469 487.266 43.3281C490.078 42.6094 493.219 42.25 496.688 42.25H506.766ZM571.688 66.8125C573.75 66.8125 575.656 66.3906 577.406 65.5469C579.156 64.7031 580.594 63.5469 581.719 62.0781C582.844 60.5781 583.484 58.875 583.641 56.9688H591.891C591.734 59.9688 590.719 62.7656 588.844 65.3594C587 67.9219 584.578 70 581.578 71.5938C578.578 73.1562 575.281 73.9375 571.688 73.9375C567.875 73.9375 564.547 73.2656 561.703 71.9219C558.891 70.5781 556.547 68.7344 554.672 66.3906C552.828 64.0469 551.438 61.3594 550.5 58.3281C549.594 55.2656 549.141 52.0312 549.141 48.625V46.6562C549.141 43.25 549.594 40.0312 550.5 37C551.438 33.9375 552.828 31.2344 554.672 28.8906C556.547 26.5469 558.891 24.7031 561.703 23.3594C564.547 22.0156 567.875 21.3438 571.688 21.3438C575.656 21.3438 579.125 22.1562 582.094 23.7812C585.062 25.375 587.391 27.5625 589.078 30.3438C590.797 33.0938 591.734 36.2188 591.891 39.7188H583.641C583.484 37.625 582.891 35.7344 581.859 34.0469C580.859 32.3594 579.484 31.0156 577.734 30.0156C576.016 28.9844 574 28.4688 571.688 28.4688C569.031 28.4688 566.797 29 564.984 30.0625C563.203 31.0938 561.781 32.5 560.719 34.2812C559.688 36.0312 558.938 37.9844 558.469 40.1406C558.031 42.2656 557.812 44.4375 557.812 46.6562V48.625C557.812 50.8438 558.031 53.0312 558.469 55.1875C558.906 57.3438 559.641 59.2969 560.672 61.0469C561.734 62.7969 563.156 64.2031 564.938 65.2656C566.75 66.2969 569 66.8125 571.688 66.8125ZM599.344 48.2031V47.125C599.344 43.4688 599.875 40.0781 600.938 36.9531C602 33.7969 603.531 31.0625 605.531 28.75C607.531 26.4062 609.953 24.5937 612.797 23.3125C615.641 22 618.828 21.3438 622.359 21.3438C625.922 21.3438 629.125 22 631.969 23.3125C634.844 24.5937 637.281 26.4062 639.281 28.75C641.312 31.0625 642.859 33.7969 643.922 36.9531C644.984 40.0781 645.516 43.4688 645.516 47.125V48.2031C645.516 51.8594 644.984 55.25 643.922 58.375C642.859 61.5 641.312 64.2344 639.281 66.5781C637.281 68.8906 634.859 70.7031 632.016 72.0156C629.203 73.2969 626.016 73.9375 622.453 73.9375C618.891 73.9375 615.688 73.2969 612.844 72.0156C610 70.7031 607.562 68.8906 605.531 66.5781C603.531 64.2344 602 61.5 600.938 58.375C599.875 55.25 599.344 51.8594 599.344 48.2031ZM608.016 47.125V48.2031C608.016 50.7344 608.312 53.125 608.906 55.375C609.5 57.5938 610.391 59.5625 611.578 61.2812C612.797 63 614.312 64.3594 616.125 65.3594C617.938 66.3281 620.047 66.8125 622.453 66.8125C624.828 66.8125 626.906 66.3281 628.688 65.3594C630.5 64.3594 632 63 633.188 61.2812C634.375 59.5625 635.266 57.5938 635.859 55.375C636.484 53.125 636.797 50.7344 636.797 48.2031V47.125C636.797 44.625 636.484 42.2656 635.859 40.0469C635.266 37.7969 634.359 35.8125 633.141 34.0938C631.953 32.3438 630.453 30.9688 628.641 29.9688C626.859 28.9688 624.766 28.4688 622.359 28.4688C619.984 28.4688 617.891 28.9688 616.078 29.9688C614.297 30.9688 612.797 32.3438 611.578 34.0938C610.391 35.8125 609.5 37.7969 608.906 40.0469C608.312 42.2656 608.016 44.625 608.016 47.125ZM685.922 59.5469C685.922 58.2969 685.641 57.1406 685.078 56.0781C684.547 54.9844 683.438 54 681.75 53.125C680.094 52.2188 677.594 51.4375 674.25 50.7812C671.438 50.1875 668.891 49.4844 666.609 48.6719C664.359 47.8594 662.438 46.875 660.844 45.7188C659.281 44.5625 658.078 43.2031 657.234 41.6406C656.391 40.0781 655.969 38.25 655.969 36.1562C655.969 34.1562 656.406 32.2656 657.281 30.4844C658.188 28.7031 659.453 27.125 661.078 25.75C662.734 24.375 664.719 23.2969 667.031 22.5156C669.344 21.7344 671.922 21.3438 674.766 21.3438C678.828 21.3438 682.297 22.0625 685.172 23.5C688.047 24.9375 690.25 26.8594 691.781 29.2656C693.312 31.6406 694.078 34.2812 694.078 37.1875H685.406C685.406 35.7812 684.984 34.4219 684.141 33.1094C683.328 31.7656 682.125 30.6562 680.531 29.7812C678.969 28.9062 677.047 28.4688 674.766 28.4688C672.359 28.4688 670.406 28.8438 668.906 29.5938C667.438 30.3125 666.359 31.2344 665.672 32.3594C665.016 33.4844 664.688 34.6719 664.688 35.9219C664.688 36.8594 664.844 37.7031 665.156 38.4531C665.5 39.1719 666.094 39.8438 666.938 40.4688C667.781 41.0625 668.969 41.625 670.5 42.1562C672.031 42.6875 673.984 43.2188 676.359 43.75C680.516 44.6875 683.938 45.8125 686.625 47.125C689.312 48.4375 691.312 50.0469 692.625 51.9531C693.938 53.8594 694.594 56.1719 694.594 58.8906C694.594 61.1094 694.125 63.1406 693.188 64.9844C692.281 66.8281 690.953 68.4219 689.203 69.7656C687.484 71.0781 685.422 72.1094 683.016 72.8594C680.641 73.5781 677.969 73.9375 675 73.9375C670.531 73.9375 666.75 73.1406 663.656 71.5469C660.562 69.9531 658.219 67.8906 656.625 65.3594C655.031 62.8281 654.234 60.1562 654.234 57.3438H662.953C663.078 59.7188 663.766 61.6094 665.016 63.0156C666.266 64.3906 667.797 65.375 669.609 65.9688C671.422 66.5312 673.219 66.8125 675 66.8125C677.375 66.8125 679.359 66.5 680.953 65.875C682.578 65.25 683.812 64.3906 684.656 63.2969C685.5 62.2031 685.922 60.9531 685.922 59.5469ZM727.219 22.2812V28.9375H699.797V22.2812H727.219ZM709.078 9.95312H717.75V60.4375C717.75 62.1562 718.016 63.4531 718.547 64.3281C719.078 65.2031 719.766 65.7812 720.609 66.0625C721.453 66.3438 722.359 66.4844 723.328 66.4844C724.047 66.4844 724.797 66.4219 725.578 66.2969C726.391 66.1406 727 66.0156 727.406 65.9219L727.453 73C726.766 73.2188 725.859 73.4219 724.734 73.6094C723.641 73.8281 722.312 73.9375 720.75 73.9375C718.625 73.9375 716.672 73.5156 714.891 72.6719C713.109 71.8281 711.688 70.4219 710.625 68.4531C709.594 66.4531 709.078 63.7656 709.078 60.3906V9.95312ZM767.297 64.3281V38.2188C767.297 36.2188 766.891 34.4844 766.078 33.0156C765.297 31.5156 764.109 30.3594 762.516 29.5469C760.922 28.7344 758.953 28.3281 756.609 28.3281C754.422 28.3281 752.5 28.7031 750.844 29.4531C749.219 30.2031 747.938 31.1875 747 32.4062C746.094 33.625 745.641 34.9375 745.641 36.3438H736.969C736.969 34.5312 737.438 32.7344 738.375 30.9531C739.312 29.1719 740.656 27.5625 742.406 26.125C744.188 24.6563 746.312 23.5 748.781 22.6562C751.281 21.7812 754.062 21.3438 757.125 21.3438C760.812 21.3438 764.062 21.9687 766.875 23.2188C769.719 24.4688 771.938 26.3594 773.531 28.8906C775.156 31.3906 775.969 34.5312 775.969 38.3125V61.9375C775.969 63.625 776.109 65.4219 776.391 67.3281C776.703 69.2344 777.156 70.875 777.75 72.25V73H768.703C768.266 72 767.922 70.6719 767.672 69.0156C767.422 67.3281 767.297 65.7656 767.297 64.3281ZM768.797 42.25L768.891 48.3438H760.125C757.656 48.3438 755.453 48.5469 753.516 48.9531C751.578 49.3281 749.953 49.9062 748.641 50.6875C747.328 51.4688 746.328 52.4531 745.641 53.6406C744.953 54.7969 744.609 56.1562 744.609 57.7188C744.609 59.3125 744.969 60.7656 745.688 62.0781C746.406 63.3906 747.484 64.4375 748.922 65.2188C750.391 65.9688 752.188 66.3438 754.312 66.3438C756.969 66.3438 759.312 65.7812 761.344 64.6562C763.375 63.5312 764.984 62.1562 766.172 60.5312C767.391 58.9062 768.047 57.3281 768.141 55.7969L771.844 59.9688C771.625 61.2812 771.031 62.7344 770.062 64.3281C769.094 65.9219 767.797 67.4531 766.172 68.9219C764.578 70.3594 762.672 71.5625 760.453 72.5312C758.266 73.4688 755.797 73.9375 753.047 73.9375C749.609 73.9375 746.594 73.2656 744 71.9219C741.438 70.5781 739.438 68.7812 738 66.5312C736.594 64.25 735.891 61.7031 735.891 58.8906C735.891 56.1719 736.422 53.7812 737.484 51.7188C738.547 49.625 740.078 47.8906 742.078 46.5156C744.078 45.1094 746.484 44.0469 749.297 43.3281C752.109 42.6094 755.25 42.25 758.719 42.25H768.797Z" fill="black"/>
<path d="M64.0781 263.453V277H61.1719V260.094H63.9219L64.0781 263.453ZM63.4844 267.906L62.1406 267.859C62.151 266.703 62.3021 265.635 62.5938 264.656C62.8854 263.667 63.3177 262.807 63.8906 262.078C64.4635 261.349 65.1771 260.786 66.0312 260.391C66.8854 259.984 67.875 259.781 69 259.781C69.7917 259.781 70.5208 259.896 71.1875 260.125C71.8542 260.344 72.4323 260.693 72.9219 261.172C73.4115 261.651 73.7917 262.266 74.0625 263.016C74.3333 263.766 74.4688 264.672 74.4688 265.734V277H71.5781V265.875C71.5781 264.99 71.4271 264.281 71.125 263.75C70.8333 263.219 70.4167 262.833 69.875 262.594C69.3333 262.344 68.6979 262.219 67.9688 262.219C67.1146 262.219 66.401 262.37 65.8281 262.672C65.2552 262.974 64.7969 263.391 64.4531 263.922C64.1094 264.453 63.8594 265.062 63.7031 265.75C63.5573 266.427 63.4844 267.146 63.4844 267.906ZM74.4375 266.312L72.5 266.906C72.5104 265.979 72.6615 265.089 72.9531 264.234C73.2552 263.38 73.6875 262.62 74.25 261.953C74.8229 261.286 75.526 260.76 76.3594 260.375C77.1927 259.979 78.1458 259.781 79.2188 259.781C80.125 259.781 80.9271 259.901 81.625 260.141C82.3333 260.38 82.9271 260.75 83.4062 261.25C83.8958 261.74 84.2656 262.37 84.5156 263.141C84.7656 263.911 84.8906 264.828 84.8906 265.891V277H81.9844V265.859C81.9844 264.911 81.8333 264.177 81.5312 263.656C81.2396 263.125 80.8229 262.755 80.2812 262.547C79.75 262.328 79.1146 262.219 78.375 262.219C77.7396 262.219 77.1771 262.328 76.6875 262.547C76.1979 262.766 75.7865 263.068 75.4531 263.453C75.1198 263.828 74.8646 264.26 74.6875 264.75C74.5208 265.24 74.4375 265.76 74.4375 266.312ZM99.2344 274.109V265.406C99.2344 264.74 99.099 264.161 98.8281 263.672C98.5677 263.172 98.1719 262.786 97.6406 262.516C97.1094 262.245 96.4531 262.109 95.6719 262.109C94.9427 262.109 94.3021 262.234 93.75 262.484C93.2083 262.734 92.7812 263.062 92.4688 263.469C92.1667 263.875 92.0156 264.312 92.0156 264.781H89.125C89.125 264.177 89.2812 263.578 89.5938 262.984C89.9062 262.391 90.3542 261.854 90.9375 261.375C91.5312 260.885 92.2396 260.5 93.0625 260.219C93.8958 259.927 94.8229 259.781 95.8438 259.781C97.0729 259.781 98.1562 259.99 99.0938 260.406C100.042 260.823 100.781 261.453 101.312 262.297C101.854 263.13 102.125 264.177 102.125 265.438V273.312C102.125 273.875 102.172 274.474 102.266 275.109C102.37 275.745 102.521 276.292 102.719 276.75V277H99.7031C99.5573 276.667 99.4427 276.224 99.3594 275.672C99.276 275.109 99.2344 274.589 99.2344 274.109ZM99.7344 266.75L99.7656 268.781H96.8438C96.0208 268.781 95.2865 268.849 94.6406 268.984C93.9948 269.109 93.4531 269.302 93.0156 269.562C92.5781 269.823 92.2448 270.151 92.0156 270.547C91.7865 270.932 91.6719 271.385 91.6719 271.906C91.6719 272.438 91.7917 272.922 92.0312 273.359C92.2708 273.797 92.6302 274.146 93.1094 274.406C93.599 274.656 94.1979 274.781 94.9062 274.781C95.7917 274.781 96.5729 274.594 97.25 274.219C97.9271 273.844 98.4635 273.385 98.8594 272.844C99.2656 272.302 99.4844 271.776 99.5156 271.266L100.75 272.656C100.677 273.094 100.479 273.578 100.156 274.109C99.8333 274.641 99.401 275.151 98.8594 275.641C98.3281 276.12 97.6927 276.521 96.9531 276.844C96.224 277.156 95.401 277.312 94.4844 277.312C93.3385 277.312 92.3333 277.089 91.4688 276.641C90.6146 276.193 89.9479 275.594 89.4688 274.844C89 274.083 88.7656 273.234 88.7656 272.297C88.7656 271.391 88.9427 270.594 89.2969 269.906C89.651 269.208 90.1615 268.63 90.8281 268.172C91.4948 267.703 92.2969 267.349 93.2344 267.109C94.1719 266.87 95.2188 266.75 96.375 266.75H99.7344ZM116.516 272.516C116.516 272.099 116.422 271.714 116.234 271.359C116.057 270.995 115.688 270.667 115.125 270.375C114.573 270.073 113.74 269.812 112.625 269.594C111.688 269.396 110.839 269.161 110.078 268.891C109.328 268.62 108.688 268.292 108.156 267.906C107.635 267.521 107.234 267.068 106.953 266.547C106.672 266.026 106.531 265.417 106.531 264.719C106.531 264.052 106.677 263.422 106.969 262.828C107.271 262.234 107.693 261.708 108.234 261.25C108.786 260.792 109.448 260.432 110.219 260.172C110.99 259.911 111.849 259.781 112.797 259.781C114.151 259.781 115.307 260.021 116.266 260.5C117.224 260.979 117.958 261.62 118.469 262.422C118.979 263.214 119.234 264.094 119.234 265.062H116.344C116.344 264.594 116.203 264.141 115.922 263.703C115.651 263.255 115.25 262.885 114.719 262.594C114.198 262.302 113.557 262.156 112.797 262.156C111.995 262.156 111.344 262.281 110.844 262.531C110.354 262.771 109.995 263.078 109.766 263.453C109.547 263.828 109.438 264.224 109.438 264.641C109.438 264.953 109.49 265.234 109.594 265.484C109.708 265.724 109.906 265.948 110.188 266.156C110.469 266.354 110.865 266.542 111.375 266.719C111.885 266.896 112.536 267.073 113.328 267.25C114.714 267.562 115.854 267.938 116.75 268.375C117.646 268.812 118.312 269.349 118.75 269.984C119.188 270.62 119.406 271.391 119.406 272.297C119.406 273.036 119.25 273.714 118.938 274.328C118.635 274.943 118.193 275.474 117.609 275.922C117.036 276.359 116.349 276.703 115.547 276.953C114.755 277.193 113.865 277.312 112.875 277.312C111.385 277.312 110.125 277.047 109.094 276.516C108.062 275.984 107.281 275.297 106.75 274.453C106.219 273.609 105.953 272.719 105.953 271.781H108.859C108.901 272.573 109.13 273.203 109.547 273.672C109.964 274.13 110.474 274.458 111.078 274.656C111.682 274.844 112.281 274.938 112.875 274.938C113.667 274.938 114.328 274.833 114.859 274.625C115.401 274.417 115.812 274.13 116.094 273.766C116.375 273.401 116.516 272.984 116.516 272.516ZM130.281 260.094V262.312H121.141V260.094H130.281ZM124.234 255.984H127.125V272.812C127.125 273.385 127.214 273.818 127.391 274.109C127.568 274.401 127.797 274.594 128.078 274.688C128.359 274.781 128.661 274.828 128.984 274.828C129.224 274.828 129.474 274.807 129.734 274.766C130.005 274.714 130.208 274.672 130.344 274.641L130.359 277C130.13 277.073 129.828 277.141 129.453 277.203C129.089 277.276 128.646 277.312 128.125 277.312C127.417 277.312 126.766 277.172 126.172 276.891C125.578 276.609 125.104 276.141 124.75 275.484C124.406 274.818 124.234 273.922 124.234 272.797V255.984ZM140.688 277.312C139.51 277.312 138.443 277.115 137.484 276.719C136.536 276.312 135.719 275.745 135.031 275.016C134.354 274.286 133.833 273.422 133.469 272.422C133.104 271.422 132.922 270.328 132.922 269.141V268.484C132.922 267.109 133.125 265.885 133.531 264.812C133.938 263.729 134.49 262.812 135.188 262.062C135.885 261.312 136.677 260.745 137.562 260.359C138.448 259.974 139.365 259.781 140.312 259.781C141.521 259.781 142.562 259.99 143.438 260.406C144.323 260.823 145.047 261.406 145.609 262.156C146.172 262.896 146.589 263.771 146.859 264.781C147.13 265.781 147.266 266.875 147.266 268.062V269.359H134.641V267H144.375V266.781C144.333 266.031 144.177 265.302 143.906 264.594C143.646 263.885 143.229 263.302 142.656 262.844C142.083 262.385 141.302 262.156 140.312 262.156C139.656 262.156 139.052 262.297 138.5 262.578C137.948 262.849 137.474 263.255 137.078 263.797C136.682 264.339 136.375 265 136.156 265.781C135.938 266.562 135.828 267.464 135.828 268.484V269.141C135.828 269.943 135.938 270.698 136.156 271.406C136.385 272.104 136.714 272.719 137.141 273.25C137.578 273.781 138.104 274.198 138.719 274.5C139.344 274.802 140.052 274.953 140.844 274.953C141.865 274.953 142.729 274.745 143.438 274.328C144.146 273.911 144.766 273.354 145.297 272.656L147.047 274.047C146.682 274.599 146.219 275.125 145.656 275.625C145.094 276.125 144.401 276.531 143.578 276.844C142.766 277.156 141.802 277.312 140.688 277.312ZM153.531 262.75V277H150.641V260.094H153.453L153.531 262.75ZM158.812 260L158.797 262.688C158.557 262.635 158.328 262.604 158.109 262.594C157.901 262.573 157.661 262.562 157.391 262.562C156.724 262.562 156.135 262.667 155.625 262.875C155.115 263.083 154.682 263.375 154.328 263.75C153.974 264.125 153.693 264.573 153.484 265.094C153.286 265.604 153.156 266.167 153.094 266.781L152.281 267.25C152.281 266.229 152.38 265.271 152.578 264.375C152.786 263.479 153.104 262.688 153.531 262C153.958 261.302 154.5 260.76 155.156 260.375C155.823 259.979 156.615 259.781 157.531 259.781C157.74 259.781 157.979 259.807 158.25 259.859C158.521 259.901 158.708 259.948 158.812 260ZM172.562 260.094V277H169.656V260.094H172.562ZM169.438 255.609C169.438 255.141 169.578 254.745 169.859 254.422C170.151 254.099 170.578 253.938 171.141 253.938C171.693 253.938 172.115 254.099 172.406 254.422C172.708 254.745 172.859 255.141 172.859 255.609C172.859 256.057 172.708 256.443 172.406 256.766C172.115 257.078 171.693 257.234 171.141 257.234C170.578 257.234 170.151 257.078 169.859 256.766C169.578 256.443 169.438 256.057 169.438 255.609ZM180.094 263.703V277H177.203V260.094H179.938L180.094 263.703ZM179.406 267.906L178.203 267.859C178.214 266.703 178.385 265.635 178.719 264.656C179.052 263.667 179.521 262.807 180.125 262.078C180.729 261.349 181.448 260.786 182.281 260.391C183.125 259.984 184.057 259.781 185.078 259.781C185.911 259.781 186.661 259.896 187.328 260.125C187.995 260.344 188.562 260.698 189.031 261.188C189.51 261.677 189.875 262.312 190.125 263.094C190.375 263.865 190.5 264.807 190.5 265.922V277H187.594V265.891C187.594 265.005 187.464 264.297 187.203 263.766C186.943 263.224 186.562 262.833 186.062 262.594C185.562 262.344 184.948 262.219 184.219 262.219C183.5 262.219 182.844 262.37 182.25 262.672C181.667 262.974 181.161 263.391 180.734 263.922C180.318 264.453 179.99 265.062 179.75 265.75C179.521 266.427 179.406 267.146 179.406 267.906ZM213.484 273.719V253H216.391V277H213.734L213.484 273.719ZM202.109 268.734V268.406C202.109 267.115 202.266 265.943 202.578 264.891C202.901 263.828 203.354 262.917 203.938 262.156C204.531 261.396 205.234 260.812 206.047 260.406C206.87 259.99 207.786 259.781 208.797 259.781C209.859 259.781 210.786 259.969 211.578 260.344C212.38 260.708 213.057 261.245 213.609 261.953C214.172 262.651 214.615 263.495 214.938 264.484C215.26 265.474 215.484 266.594 215.609 267.844V269.281C215.495 270.521 215.271 271.635 214.938 272.625C214.615 273.615 214.172 274.458 213.609 275.156C213.057 275.854 212.38 276.391 211.578 276.766C210.776 277.13 209.839 277.312 208.766 277.312C207.776 277.312 206.87 277.099 206.047 276.672C205.234 276.245 204.531 275.646 203.938 274.875C203.354 274.104 202.901 273.198 202.578 272.156C202.266 271.104 202.109 269.964 202.109 268.734ZM205.016 268.406V268.734C205.016 269.578 205.099 270.37 205.266 271.109C205.443 271.849 205.714 272.5 206.078 273.062C206.443 273.625 206.906 274.068 207.469 274.391C208.031 274.703 208.703 274.859 209.484 274.859C210.443 274.859 211.229 274.656 211.844 274.25C212.469 273.844 212.969 273.307 213.344 272.641C213.719 271.974 214.01 271.25 214.219 270.469V266.703C214.094 266.13 213.911 265.578 213.672 265.047C213.443 264.505 213.141 264.026 212.766 263.609C212.401 263.182 211.948 262.844 211.406 262.594C210.875 262.344 210.245 262.219 209.516 262.219C208.724 262.219 208.042 262.385 207.469 262.719C206.906 263.042 206.443 263.49 206.078 264.062C205.714 264.625 205.443 265.281 205.266 266.031C205.099 266.771 205.016 267.562 205.016 268.406ZM227.906 277.312C226.729 277.312 225.661 277.115 224.703 276.719C223.755 276.312 222.938 275.745 222.25 275.016C221.573 274.286 221.052 273.422 220.688 272.422C220.323 271.422 220.141 270.328 220.141 269.141V268.484C220.141 267.109 220.344 265.885 220.75 264.812C221.156 263.729 221.708 262.812 222.406 262.062C223.104 261.312 223.896 260.745 224.781 260.359C225.667 259.974 226.583 259.781 227.531 259.781C228.74 259.781 229.781 259.99 230.656 260.406C231.542 260.823 232.266 261.406 232.828 262.156C233.391 262.896 233.807 263.771 234.078 264.781C234.349 265.781 234.484 266.875 234.484 268.062V269.359H221.859V267H231.594V266.781C231.552 266.031 231.396 265.302 231.125 264.594C230.865 263.885 230.448 263.302 229.875 262.844C229.302 262.385 228.521 262.156 227.531 262.156C226.875 262.156 226.271 262.297 225.719 262.578C225.167 262.849 224.693 263.255 224.297 263.797C223.901 264.339 223.594 265 223.375 265.781C223.156 266.562 223.047 267.464 223.047 268.484V269.141C223.047 269.943 223.156 270.698 223.375 271.406C223.604 272.104 223.932 272.719 224.359 273.25C224.797 273.781 225.323 274.198 225.938 274.5C226.562 274.802 227.271 274.953 228.062 274.953C229.083 274.953 229.948 274.745 230.656 274.328C231.365 273.911 231.984 273.354 232.516 272.656L234.266 274.047C233.901 274.599 233.438 275.125 232.875 275.625C232.312 276.125 231.62 276.531 230.797 276.844C229.984 277.156 229.021 277.312 227.906 277.312ZM247.703 272.516C247.703 272.099 247.609 271.714 247.422 271.359C247.245 270.995 246.875 270.667 246.312 270.375C245.76 270.073 244.927 269.812 243.812 269.594C242.875 269.396 242.026 269.161 241.266 268.891C240.516 268.62 239.875 268.292 239.344 267.906C238.823 267.521 238.422 267.068 238.141 266.547C237.859 266.026 237.719 265.417 237.719 264.719C237.719 264.052 237.865 263.422 238.156 262.828C238.458 262.234 238.88 261.708 239.422 261.25C239.974 260.792 240.635 260.432 241.406 260.172C242.177 259.911 243.036 259.781 243.984 259.781C245.339 259.781 246.495 260.021 247.453 260.5C248.411 260.979 249.146 261.62 249.656 262.422C250.167 263.214 250.422 264.094 250.422 265.062H247.531C247.531 264.594 247.391 264.141 247.109 263.703C246.839 263.255 246.438 262.885 245.906 262.594C245.385 262.302 244.745 262.156 243.984 262.156C243.182 262.156 242.531 262.281 242.031 262.531C241.542 262.771 241.182 263.078 240.953 263.453C240.734 263.828 240.625 264.224 240.625 264.641C240.625 264.953 240.677 265.234 240.781 265.484C240.896 265.724 241.094 265.948 241.375 266.156C241.656 266.354 242.052 266.542 242.562 266.719C243.073 266.896 243.724 267.073 244.516 267.25C245.901 267.562 247.042 267.938 247.938 268.375C248.833 268.812 249.5 269.349 249.938 269.984C250.375 270.62 250.594 271.391 250.594 272.297C250.594 273.036 250.438 273.714 250.125 274.328C249.823 274.943 249.38 275.474 248.797 275.922C248.224 276.359 247.536 276.703 246.734 276.953C245.943 277.193 245.052 277.312 244.062 277.312C242.573 277.312 241.312 277.047 240.281 276.516C239.25 275.984 238.469 275.297 237.938 274.453C237.406 273.609 237.141 272.719 237.141 271.781H240.047C240.089 272.573 240.318 273.203 240.734 273.672C241.151 274.13 241.661 274.458 242.266 274.656C242.87 274.844 243.469 274.938 244.062 274.938C244.854 274.938 245.516 274.833 246.047 274.625C246.589 274.417 247 274.13 247.281 273.766C247.562 273.401 247.703 272.984 247.703 272.516ZM257.531 260.094V277H254.625V260.094H257.531ZM254.406 255.609C254.406 255.141 254.547 254.745 254.828 254.422C255.12 254.099 255.547 253.938 256.109 253.938C256.661 253.938 257.083 254.099 257.375 254.422C257.677 254.745 257.828 255.141 257.828 255.609C257.828 256.057 257.677 256.443 257.375 256.766C257.083 257.078 256.661 257.234 256.109 257.234C255.547 257.234 255.12 257.078 254.828 256.766C254.547 256.443 254.406 256.057 254.406 255.609ZM273.125 260.094H275.75V276.641C275.75 278.13 275.448 279.401 274.844 280.453C274.24 281.505 273.396 282.302 272.312 282.844C271.24 283.396 270 283.672 268.594 283.672C268.01 283.672 267.323 283.578 266.531 283.391C265.75 283.214 264.979 282.906 264.219 282.469C263.469 282.042 262.839 281.464 262.328 280.734L263.844 279.016C264.552 279.87 265.292 280.464 266.062 280.797C266.844 281.13 267.615 281.297 268.375 281.297C269.292 281.297 270.083 281.125 270.75 280.781C271.417 280.438 271.932 279.927 272.297 279.25C272.672 278.583 272.859 277.76 272.859 276.781V263.812L273.125 260.094ZM261.484 268.734V268.406C261.484 267.115 261.635 265.943 261.938 264.891C262.25 263.828 262.693 262.917 263.266 262.156C263.849 261.396 264.552 260.812 265.375 260.406C266.198 259.99 267.125 259.781 268.156 259.781C269.219 259.781 270.146 259.969 270.938 260.344C271.74 260.708 272.417 261.245 272.969 261.953C273.531 262.651 273.974 263.495 274.297 264.484C274.62 265.474 274.844 266.594 274.969 267.844V269.281C274.854 270.521 274.63 271.635 274.297 272.625C273.974 273.615 273.531 274.458 272.969 275.156C272.417 275.854 271.74 276.391 270.938 276.766C270.135 277.13 269.198 277.312 268.125 277.312C267.115 277.312 266.198 277.099 265.375 276.672C264.562 276.245 263.865 275.646 263.281 274.875C262.698 274.104 262.25 273.198 261.938 272.156C261.635 271.104 261.484 269.964 261.484 268.734ZM264.375 268.406V268.734C264.375 269.578 264.458 270.37 264.625 271.109C264.802 271.849 265.068 272.5 265.422 273.062C265.786 273.625 266.25 274.068 266.812 274.391C267.375 274.703 268.047 274.859 268.828 274.859C269.786 274.859 270.578 274.656 271.203 274.25C271.828 273.844 272.323 273.307 272.688 272.641C273.062 271.974 273.354 271.25 273.562 270.469V266.703C273.448 266.13 273.271 265.578 273.031 265.047C272.802 264.505 272.5 264.026 272.125 263.609C271.76 263.182 271.307 262.844 270.766 262.594C270.224 262.344 269.589 262.219 268.859 262.219C268.068 262.219 267.385 262.385 266.812 262.719C266.25 263.042 265.786 263.49 265.422 264.062C265.068 264.625 264.802 265.281 264.625 266.031C264.458 266.771 264.375 267.562 264.375 268.406ZM283.031 263.703V277H280.141V260.094H282.875L283.031 263.703ZM282.344 267.906L281.141 267.859C281.151 266.703 281.323 265.635 281.656 264.656C281.99 263.667 282.458 262.807 283.062 262.078C283.667 261.349 284.385 260.786 285.219 260.391C286.062 259.984 286.995 259.781 288.016 259.781C288.849 259.781 289.599 259.896 290.266 260.125C290.932 260.344 291.5 260.698 291.969 261.188C292.448 261.677 292.812 262.312 293.062 263.094C293.312 263.865 293.438 264.807 293.438 265.922V277H290.531V265.891C290.531 265.005 290.401 264.297 290.141 263.766C289.88 263.224 289.5 262.833 289 262.594C288.5 262.344 287.885 262.219 287.156 262.219C286.438 262.219 285.781 262.37 285.188 262.672C284.604 262.974 284.099 263.391 283.672 263.922C283.255 264.453 282.927 265.062 282.688 265.75C282.458 266.427 282.344 267.146 282.344 267.906ZM315.734 274.109V265.406C315.734 264.74 315.599 264.161 315.328 263.672C315.068 263.172 314.672 262.786 314.141 262.516C313.609 262.245 312.953 262.109 312.172 262.109C311.443 262.109 310.802 262.234 310.25 262.484C309.708 262.734 309.281 263.062 308.969 263.469C308.667 263.875 308.516 264.312 308.516 264.781H305.625C305.625 264.177 305.781 263.578 306.094 262.984C306.406 262.391 306.854 261.854 307.438 261.375C308.031 260.885 308.74 260.5 309.562 260.219C310.396 259.927 311.323 259.781 312.344 259.781C313.573 259.781 314.656 259.99 315.594 260.406C316.542 260.823 317.281 261.453 317.812 262.297C318.354 263.13 318.625 264.177 318.625 265.438V273.312C318.625 273.875 318.672 274.474 318.766 275.109C318.87 275.745 319.021 276.292 319.219 276.75V277H316.203C316.057 276.667 315.943 276.224 315.859 275.672C315.776 275.109 315.734 274.589 315.734 274.109ZM316.234 266.75L316.266 268.781H313.344C312.521 268.781 311.786 268.849 311.141 268.984C310.495 269.109 309.953 269.302 309.516 269.562C309.078 269.823 308.745 270.151 308.516 270.547C308.286 270.932 308.172 271.385 308.172 271.906C308.172 272.438 308.292 272.922 308.531 273.359C308.771 273.797 309.13 274.146 309.609 274.406C310.099 274.656 310.698 274.781 311.406 274.781C312.292 274.781 313.073 274.594 313.75 274.219C314.427 273.844 314.964 273.385 315.359 272.844C315.766 272.302 315.984 271.776 316.016 271.266L317.25 272.656C317.177 273.094 316.979 273.578 316.656 274.109C316.333 274.641 315.901 275.151 315.359 275.641C314.828 276.12 314.193 276.521 313.453 276.844C312.724 277.156 311.901 277.312 310.984 277.312C309.839 277.312 308.833 277.089 307.969 276.641C307.115 276.193 306.448 275.594 305.969 274.844C305.5 274.083 305.266 273.234 305.266 272.297C305.266 271.391 305.443 270.594 305.797 269.906C306.151 269.208 306.661 268.63 307.328 268.172C307.995 267.703 308.797 267.349 309.734 267.109C310.672 266.87 311.719 266.75 312.875 266.75H316.234ZM326.062 263.703V277H323.172V260.094H325.906L326.062 263.703ZM325.375 267.906L324.172 267.859C324.182 266.703 324.354 265.635 324.688 264.656C325.021 263.667 325.49 262.807 326.094 262.078C326.698 261.349 327.417 260.786 328.25 260.391C329.094 259.984 330.026 259.781 331.047 259.781C331.88 259.781 332.63 259.896 333.297 260.125C333.964 260.344 334.531 260.698 335 261.188C335.479 261.677 335.844 262.312 336.094 263.094C336.344 263.865 336.469 264.807 336.469 265.922V277H333.562V265.891C333.562 265.005 333.432 264.297 333.172 263.766C332.911 263.224 332.531 262.833 332.031 262.594C331.531 262.344 330.917 262.219 330.188 262.219C329.469 262.219 328.812 262.37 328.219 262.672C327.635 262.974 327.13 263.391 326.703 263.922C326.286 264.453 325.958 265.062 325.719 265.75C325.49 266.427 325.375 267.146 325.375 267.906ZM351.516 273.719V253H354.422V277H351.766L351.516 273.719ZM340.141 268.734V268.406C340.141 267.115 340.297 265.943 340.609 264.891C340.932 263.828 341.385 262.917 341.969 262.156C342.562 261.396 343.266 260.812 344.078 260.406C344.901 259.99 345.818 259.781 346.828 259.781C347.891 259.781 348.818 259.969 349.609 260.344C350.411 260.708 351.089 261.245 351.641 261.953C352.203 262.651 352.646 263.495 352.969 264.484C353.292 265.474 353.516 266.594 353.641 267.844V269.281C353.526 270.521 353.302 271.635 352.969 272.625C352.646 273.615 352.203 274.458 351.641 275.156C351.089 275.854 350.411 276.391 349.609 276.766C348.807 277.13 347.87 277.312 346.797 277.312C345.807 277.312 344.901 277.099 344.078 276.672C343.266 276.245 342.562 275.646 341.969 274.875C341.385 274.104 340.932 273.198 340.609 272.156C340.297 271.104 340.141 269.964 340.141 268.734ZM343.047 268.406V268.734C343.047 269.578 343.13 270.37 343.297 271.109C343.474 271.849 343.745 272.5 344.109 273.062C344.474 273.625 344.938 274.068 345.5 274.391C346.062 274.703 346.734 274.859 347.516 274.859C348.474 274.859 349.26 274.656 349.875 274.25C350.5 273.844 351 273.307 351.375 272.641C351.75 271.974 352.042 271.25 352.25 270.469V266.703C352.125 266.13 351.943 265.578 351.703 265.047C351.474 264.505 351.172 264.026 350.797 263.609C350.432 263.182 349.979 262.844 349.438 262.594C348.906 262.344 348.276 262.219 347.547 262.219C346.755 262.219 346.073 262.385 345.5 262.719C344.938 263.042 344.474 263.49 344.109 264.062C343.745 264.625 343.474 265.281 343.297 266.031C343.13 266.771 343.047 267.562 343.047 268.406ZM369.734 263.453V277H366.828V260.094H369.578L369.734 263.453ZM369.141 267.906L367.797 267.859C367.807 266.703 367.958 265.635 368.25 264.656C368.542 263.667 368.974 262.807 369.547 262.078C370.12 261.349 370.833 260.786 371.688 260.391C372.542 259.984 373.531 259.781 374.656 259.781C375.448 259.781 376.177 259.896 376.844 260.125C377.51 260.344 378.089 260.693 378.578 261.172C379.068 261.651 379.448 262.266 379.719 263.016C379.99 263.766 380.125 264.672 380.125 265.734V277H377.234V265.875C377.234 264.99 377.083 264.281 376.781 263.75C376.49 263.219 376.073 262.833 375.531 262.594C374.99 262.344 374.354 262.219 373.625 262.219C372.771 262.219 372.057 262.37 371.484 262.672C370.911 262.974 370.453 263.391 370.109 263.922C369.766 264.453 369.516 265.062 369.359 265.75C369.214 266.427 369.141 267.146 369.141 267.906ZM380.094 266.312L378.156 266.906C378.167 265.979 378.318 265.089 378.609 264.234C378.911 263.38 379.344 262.62 379.906 261.953C380.479 261.286 381.182 260.76 382.016 260.375C382.849 259.979 383.802 259.781 384.875 259.781C385.781 259.781 386.583 259.901 387.281 260.141C387.99 260.38 388.583 260.75 389.062 261.25C389.552 261.74 389.922 262.37 390.172 263.141C390.422 263.911 390.547 264.828 390.547 265.891V277H387.641V265.859C387.641 264.911 387.49 264.177 387.188 263.656C386.896 263.125 386.479 262.755 385.938 262.547C385.406 262.328 384.771 262.219 384.031 262.219C383.396 262.219 382.833 262.328 382.344 262.547C381.854 262.766 381.443 263.068 381.109 263.453C380.776 263.828 380.521 264.26 380.344 264.75C380.177 265.24 380.094 265.76 380.094 266.312ZM405.266 273.094V260.094H408.172V277H405.406L405.266 273.094ZM405.812 269.531L407.016 269.5C407.016 270.625 406.896 271.667 406.656 272.625C406.427 273.573 406.052 274.396 405.531 275.094C405.01 275.792 404.328 276.339 403.484 276.734C402.641 277.12 401.615 277.312 400.406 277.312C399.583 277.312 398.828 277.193 398.141 276.953C397.464 276.714 396.88 276.344 396.391 275.844C395.901 275.344 395.521 274.693 395.25 273.891C394.99 273.089 394.859 272.125 394.859 271V260.094H397.75V271.031C397.75 271.792 397.833 272.422 398 272.922C398.177 273.411 398.411 273.802 398.703 274.094C399.005 274.375 399.339 274.573 399.703 274.688C400.078 274.802 400.464 274.859 400.859 274.859C402.089 274.859 403.062 274.625 403.781 274.156C404.5 273.677 405.016 273.036 405.328 272.234C405.651 271.422 405.812 270.521 405.812 269.531ZM415.719 253V277H412.812V253H415.719ZM427.438 260.094V262.312H418.297V260.094H427.438ZM421.391 255.984H424.281V272.812C424.281 273.385 424.37 273.818 424.547 274.109C424.724 274.401 424.953 274.594 425.234 274.688C425.516 274.781 425.818 274.828 426.141 274.828C426.38 274.828 426.63 274.807 426.891 274.766C427.161 274.714 427.365 274.672 427.5 274.641L427.516 277C427.286 277.073 426.984 277.141 426.609 277.203C426.245 277.276 425.802 277.312 425.281 277.312C424.573 277.312 423.922 277.172 423.328 276.891C422.734 276.609 422.26 276.141 421.906 275.484C421.562 274.818 421.391 273.922 421.391 272.797V255.984ZM433.969 260.094V277H431.062V260.094H433.969ZM430.844 255.609C430.844 255.141 430.984 254.745 431.266 254.422C431.557 254.099 431.984 253.938 432.547 253.938C433.099 253.938 433.521 254.099 433.812 254.422C434.115 254.745 434.266 255.141 434.266 255.609C434.266 256.057 434.115 256.443 433.812 256.766C433.521 257.078 433.099 257.234 432.547 257.234C431.984 257.234 431.557 257.078 431.266 256.766C430.984 256.443 430.844 256.057 430.844 255.609ZM441.484 263.453V277H438.578V260.094H441.328L441.484 263.453ZM440.891 267.906L439.547 267.859C439.557 266.703 439.708 265.635 440 264.656C440.292 263.667 440.724 262.807 441.297 262.078C441.87 261.349 442.583 260.786 443.438 260.391C444.292 259.984 445.281 259.781 446.406 259.781C447.198 259.781 447.927 259.896 448.594 260.125C449.26 260.344 449.839 260.693 450.328 261.172C450.818 261.651 451.198 262.266 451.469 263.016C451.74 263.766 451.875 264.672 451.875 265.734V277H448.984V265.875C448.984 264.99 448.833 264.281 448.531 263.75C448.24 263.219 447.823 262.833 447.281 262.594C446.74 262.344 446.104 262.219 445.375 262.219C444.521 262.219 443.807 262.37 443.234 262.672C442.661 262.974 442.203 263.391 441.859 263.922C441.516 264.453 441.266 265.062 441.109 265.75C440.964 266.427 440.891 267.146 440.891 267.906ZM451.844 266.312L449.906 266.906C449.917 265.979 450.068 265.089 450.359 264.234C450.661 263.38 451.094 262.62 451.656 261.953C452.229 261.286 452.932 260.76 453.766 260.375C454.599 259.979 455.552 259.781 456.625 259.781C457.531 259.781 458.333 259.901 459.031 260.141C459.74 260.38 460.333 260.75 460.812 261.25C461.302 261.74 461.672 262.37 461.922 263.141C462.172 263.911 462.297 264.828 462.297 265.891V277H459.391V265.859C459.391 264.911 459.24 264.177 458.938 263.656C458.646 263.125 458.229 262.755 457.688 262.547C457.156 262.328 456.521 262.219 455.781 262.219C455.146 262.219 454.583 262.328 454.094 262.547C453.604 262.766 453.193 263.068 452.859 263.453C452.526 263.828 452.271 264.26 452.094 264.75C451.927 265.24 451.844 265.76 451.844 266.312ZM473.688 277.312C472.51 277.312 471.443 277.115 470.484 276.719C469.536 276.312 468.719 275.745 468.031 275.016C467.354 274.286 466.833 273.422 466.469 272.422C466.104 271.422 465.922 270.328 465.922 269.141V268.484C465.922 267.109 466.125 265.885 466.531 264.812C466.938 263.729 467.49 262.812 468.188 262.062C468.885 261.312 469.677 260.745 470.562 260.359C471.448 259.974 472.365 259.781 473.312 259.781C474.521 259.781 475.562 259.99 476.438 260.406C477.323 260.823 478.047 261.406 478.609 262.156C479.172 262.896 479.589 263.771 479.859 264.781C480.13 265.781 480.266 266.875 480.266 268.062V269.359H467.641V267H477.375V266.781C477.333 266.031 477.177 265.302 476.906 264.594C476.646 263.885 476.229 263.302 475.656 262.844C475.083 262.385 474.302 262.156 473.312 262.156C472.656 262.156 472.052 262.297 471.5 262.578C470.948 262.849 470.474 263.255 470.078 263.797C469.682 264.339 469.375 265 469.156 265.781C468.938 266.562 468.828 267.464 468.828 268.484V269.141C468.828 269.943 468.938 270.698 469.156 271.406C469.385 272.104 469.714 272.719 470.141 273.25C470.578 273.781 471.104 274.198 471.719 274.5C472.344 274.802 473.052 274.953 473.844 274.953C474.865 274.953 475.729 274.745 476.438 274.328C477.146 273.911 477.766 273.354 478.297 272.656L480.047 274.047C479.682 274.599 479.219 275.125 478.656 275.625C478.094 276.125 477.401 276.531 476.578 276.844C475.766 277.156 474.802 277.312 473.688 277.312ZM494.297 273.719V253H497.203V277H494.547L494.297 273.719ZM482.922 268.734V268.406C482.922 267.115 483.078 265.943 483.391 264.891C483.714 263.828 484.167 262.917 484.75 262.156C485.344 261.396 486.047 260.812 486.859 260.406C487.682 259.99 488.599 259.781 489.609 259.781C490.672 259.781 491.599 259.969 492.391 260.344C493.193 260.708 493.87 261.245 494.422 261.953C494.984 262.651 495.427 263.495 495.75 264.484C496.073 265.474 496.297 266.594 496.422 267.844V269.281C496.307 270.521 496.083 271.635 495.75 272.625C495.427 273.615 494.984 274.458 494.422 275.156C493.87 275.854 493.193 276.391 492.391 276.766C491.589 277.13 490.651 277.312 489.578 277.312C488.589 277.312 487.682 277.099 486.859 276.672C486.047 276.245 485.344 275.646 484.75 274.875C484.167 274.104 483.714 273.198 483.391 272.156C483.078 271.104 482.922 269.964 482.922 268.734ZM485.828 268.406V268.734C485.828 269.578 485.911 270.37 486.078 271.109C486.255 271.849 486.526 272.5 486.891 273.062C487.255 273.625 487.719 274.068 488.281 274.391C488.844 274.703 489.516 274.859 490.297 274.859C491.255 274.859 492.042 274.656 492.656 274.25C493.281 273.844 493.781 273.307 494.156 272.641C494.531 271.974 494.823 271.25 495.031 270.469V266.703C494.906 266.13 494.724 265.578 494.484 265.047C494.255 264.505 493.953 264.026 493.578 263.609C493.214 263.182 492.76 262.844 492.219 262.594C491.688 262.344 491.057 262.219 490.328 262.219C489.536 262.219 488.854 262.385 488.281 262.719C487.719 263.042 487.255 263.49 486.891 264.062C486.526 264.625 486.255 265.281 486.078 266.031C485.911 266.771 485.828 267.562 485.828 268.406ZM504.844 260.094V277H501.938V260.094H504.844ZM501.719 255.609C501.719 255.141 501.859 254.745 502.141 254.422C502.432 254.099 502.859 253.938 503.422 253.938C503.974 253.938 504.396 254.099 504.688 254.422C504.99 254.745 505.141 255.141 505.141 255.609C505.141 256.057 504.99 256.443 504.688 256.766C504.396 257.078 503.974 257.234 503.422 257.234C502.859 257.234 502.432 257.078 502.141 256.766C501.859 256.443 501.719 256.057 501.719 255.609ZM519.453 274.109V265.406C519.453 264.74 519.318 264.161 519.047 263.672C518.786 263.172 518.391 262.786 517.859 262.516C517.328 262.245 516.672 262.109 515.891 262.109C515.161 262.109 514.521 262.234 513.969 262.484C513.427 262.734 513 263.062 512.688 263.469C512.385 263.875 512.234 264.312 512.234 264.781H509.344C509.344 264.177 509.5 263.578 509.812 262.984C510.125 262.391 510.573 261.854 511.156 261.375C511.75 260.885 512.458 260.5 513.281 260.219C514.115 259.927 515.042 259.781 516.062 259.781C517.292 259.781 518.375 259.99 519.312 260.406C520.26 260.823 521 261.453 521.531 262.297C522.073 263.13 522.344 264.177 522.344 265.438V273.312C522.344 273.875 522.391 274.474 522.484 275.109C522.589 275.745 522.74 276.292 522.938 276.75V277H519.922C519.776 276.667 519.661 276.224 519.578 275.672C519.495 275.109 519.453 274.589 519.453 274.109ZM519.953 266.75L519.984 268.781H517.062C516.24 268.781 515.505 268.849 514.859 268.984C514.214 269.109 513.672 269.302 513.234 269.562C512.797 269.823 512.464 270.151 512.234 270.547C512.005 270.932 511.891 271.385 511.891 271.906C511.891 272.438 512.01 272.922 512.25 273.359C512.49 273.797 512.849 274.146 513.328 274.406C513.818 274.656 514.417 274.781 515.125 274.781C516.01 274.781 516.792 274.594 517.469 274.219C518.146 273.844 518.682 273.385 519.078 272.844C519.484 272.302 519.703 271.776 519.734 271.266L520.969 272.656C520.896 273.094 520.698 273.578 520.375 274.109C520.052 274.641 519.62 275.151 519.078 275.641C518.547 276.12 517.911 276.521 517.172 276.844C516.443 277.156 515.62 277.312 514.703 277.312C513.557 277.312 512.552 277.089 511.688 276.641C510.833 276.193 510.167 275.594 509.688 274.844C509.219 274.083 508.984 273.234 508.984 272.297C508.984 271.391 509.161 270.594 509.516 269.906C509.87 269.208 510.38 268.63 511.047 268.172C511.714 267.703 512.516 267.349 513.453 267.109C514.391 266.87 515.438 266.75 516.594 266.75H519.953Z" fill="black"/>
</svg>
